<svg x="0px" y="0px" viewBox="0 0 50 62.5" style="enable-background:new 0 0 50 50;" xml:space="preserve">
    <g>
        <path d="M46,4c-4-4-10.4-4-14.4,0l-2.1,2.1l14.4,14.4l2.1-2.1C50,14.4,50,7.9,46,4z" />
        <polygon points="1,34.6 1.6,48.4 15.4,49 17.6,46.8 3.2,32.4  " />
        <rect x="7" y="24" transform="matrix(0.7071 -0.7071 0.7071 0.7071 -11.7848 24.4079)" width="33.2" height="4.8" />
        <rect x="1.8" y="18.4" transform="matrix(0.7071 -0.7071 0.7071 0.7071 -9.651 19.2564)" width="33.2" height="5.8" />
        <rect x="12.1" y="28.7" transform="matrix(0.7071 -0.7071 0.7071 0.7071 -13.9186 29.5594)" width="33.2" height="5.8" />
    </g>
</svg>
